<svg width="200" height="200" viewBox="0 0 200 200" xmlns="http://www.w3.org/2000/svg" style="background-color: transparent;">
<rect x="-0.79999999999999" y="58" width="12" height="12" fill="#0000FF" stroke="black" stroke-width="0.5" />
<rect x="7.6000000000000085" y="58" width="12" height="12" fill="#FFA500" stroke="black" stroke-width="0.5" />
<rect x="16.000000000000007" y="58" width="12" height="12" fill="#FFA500" stroke="black" stroke-width="0.5" />
<rect x="24.400000000000006" y="58" width="12" height="12" fill="#FFA500" stroke="black" stroke-width="0.5" />
<rect x="32.80000000000001" y="58" width="12" height="12" fill="#FFA500" stroke="black" stroke-width="0.5" />
<rect x="41.2" y="58" width="12" height="12" fill="#FFA500" stroke="black" stroke-width="0.5" />
<rect x="49.599999999999994" y="58" width="12" height="12" fill="#0000FF" stroke="black" stroke-width="0.5" />
<rect x="-0.79999999999999" y="65.2" width="12" height="12" fill="#0000FF" stroke="black" stroke-width="0.5" />
<rect x="7.6000000000000085" y="65.2" width="12" height="12" fill="#FFA500" stroke="black" stroke-width="0.5" />
<rect x="16.000000000000007" y="65.2" width="12" height="12" fill="#FFA500" stroke="black" stroke-width="0.5" />
<rect x="24.400000000000006" y="65.2" width="12" height="12" fill="#FFA500" stroke="black" stroke-width="0.5" />
<rect x="32.80000000000001" y="65.2" width="12" height="12" fill="#FFA500" stroke="black" stroke-width="0.5" />
<rect x="41.2" y="65.2" width="12" height="12" fill="#0000FF" stroke="black" stroke-width="0.5" />
<rect x="49.599999999999994" y="65.2" width="12" height="12" fill="#FFA500" stroke="black" stroke-width="0.5" />
<rect x="-0.79999999999999" y="72.4" width="12" height="12" fill="#0000FF" stroke="black" stroke-width="0.5" />
<rect x="7.6000000000000085" y="72.4" width="12" height="12" fill="#FFA500" stroke="black" stroke-width="0.5" />
<rect x="16.000000000000007" y="72.4" width="12" height="12" fill="#FFA500" stroke="black" stroke-width="0.5" />
<rect x="24.400000000000006" y="72.4" width="12" height="12" fill="#FFA500" stroke="black" stroke-width="0.5" />
<rect x="32.80000000000001" y="72.4" width="12" height="12" fill="#0000FF" stroke="black" stroke-width="0.5" />
<rect x="41.2" y="72.4" width="12" height="12" fill="#FFA500" stroke="black" stroke-width="0.5" />
<rect x="49.599999999999994" y="72.4" width="12" height="12" fill="#FFA500" stroke="black" stroke-width="0.5" />
<rect x="-0.79999999999999" y="79.6" width="12" height="12" fill="#0000FF" stroke="black" stroke-width="0.5" />
<rect x="7.6000000000000085" y="79.6" width="12" height="12" fill="#FFA500" stroke="black" stroke-width="0.5" />
<rect x="16.000000000000007" y="79.6" width="12" height="12" fill="#FFA500" stroke="black" stroke-width="0.5" />
<rect x="24.400000000000006" y="79.6" width="12" height="12" fill="#0000FF" stroke="black" stroke-width="0.5" />
<rect x="32.80000000000001" y="79.6" width="12" height="12" fill="#FFA500" stroke="black" stroke-width="0.5" />
<rect x="41.2" y="79.6" width="12" height="12" fill="#FFA500" stroke="black" stroke-width="0.5" />
<rect x="49.599999999999994" y="79.6" width="12" height="12" fill="#FFA500" stroke="black" stroke-width="0.5" />
<rect x="-0.79999999999999" y="86.80000000000001" width="12" height="12" fill="#FFA500" stroke="black" stroke-width="0.5" />
<rect x="7.6000000000000085" y="86.80000000000001" width="12" height="12" fill="#0000FF" stroke="black" stroke-width="0.5" />
<rect x="16.000000000000007" y="86.80000000000001" width="12" height="12" fill="#0000FF" stroke="black" stroke-width="0.5" />
<rect x="24.400000000000006" y="86.80000000000001" width="12" height="12" fill="#FFA500" stroke="black" stroke-width="0.5" />
<rect x="32.80000000000001" y="86.80000000000001" width="12" height="12" fill="#FFA500" stroke="black" stroke-width="0.5" />
<rect x="41.2" y="86.80000000000001" width="12" height="12" fill="#FFA500" stroke="black" stroke-width="0.5" />
<rect x="49.599999999999994" y="86.80000000000001" width="12" height="12" fill="#FFA500" stroke="black" stroke-width="0.5" />
<rect x="-0.79999999999999" y="94" width="12" height="12" fill="#FFA500" stroke="black" stroke-width="0.5" />
<rect x="7.6000000000000085" y="94" width="12" height="12" fill="#FFA500" stroke="black" stroke-width="0.5" />
<rect x="16.000000000000007" y="94" width="12" height="12" fill="#0000FF" stroke="black" stroke-width="0.5" />
<rect x="24.400000000000006" y="94" width="12" height="12" fill="#FFA500" stroke="black" stroke-width="0.5" />
<rect x="32.80000000000001" y="94" width="12" height="12" fill="#FFA500" stroke="black" stroke-width="0.5" />
<rect x="41.2" y="94" width="12" height="12" fill="#FFA500" stroke="black" stroke-width="0.5" />
<rect x="49.599999999999994" y="94" width="12" height="12" fill="#FFA500" stroke="black" stroke-width="0.5" />
<rect x="-0.79999999999999" y="101.19999999999999" width="12" height="12" fill="#FFA500" stroke="black" stroke-width="0.5" />
<rect x="7.6000000000000085" y="101.19999999999999" width="12" height="12" fill="#FFA500" stroke="black" stroke-width="0.5" />
<rect x="16.000000000000007" y="101.19999999999999" width="12" height="12" fill="#FFA500" stroke="black" stroke-width="0.5" />
<rect x="24.400000000000006" y="101.19999999999999" width="12" height="12" fill="#0000FF" stroke="black" stroke-width="0.5" />
<rect x="32.80000000000001" y="101.19999999999999" width="12" height="12" fill="#FFA500" stroke="black" stroke-width="0.5" />
<rect x="41.2" y="101.19999999999999" width="12" height="12" fill="#FFA500" stroke="black" stroke-width="0.5" />
<rect x="49.599999999999994" y="101.19999999999999" width="12" height="12" fill="#FFA500" stroke="black" stroke-width="0.5" />
<rect x="100" y="58" width="12" height="12" fill="#0000FF" stroke="black" stroke-width="0.5" />
<rect x="108.4" y="58" width="12" height="12" fill="#FFA500" stroke="black" stroke-width="0.5" />
<rect x="116.8" y="58" width="12" height="12" fill="#FFA500" stroke="black" stroke-width="0.5" />
<rect x="125.19999999999999" y="58" width="12" height="12" fill="#FFA500" stroke="black" stroke-width="0.5" />
<rect x="133.6" y="58" width="12" height="12" fill="#FFA500" stroke="black" stroke-width="0.5" />
<rect x="142" y="58" width="12" height="12" fill="#FFA500" stroke="black" stroke-width="0.5" />
<rect x="150.39999999999998" y="58" width="12" height="12" fill="#0000FF" stroke="black" stroke-width="0.5" />
<rect x="100" y="65.2" width="12" height="12" fill="#0000FF" stroke="black" stroke-width="0.5" />
<rect x="108.4" y="65.2" width="12" height="12" fill="#FFA500" stroke="black" stroke-width="0.5" />
<rect x="116.8" y="65.2" width="12" height="12" fill="#FFA500" stroke="black" stroke-width="0.5" />
<rect x="125.19999999999999" y="65.2" width="12" height="12" fill="#FFA500" stroke="black" stroke-width="0.5" />
<rect x="133.6" y="65.2" width="12" height="12" fill="#FFA500" stroke="black" stroke-width="0.5" />
<rect x="142" y="65.2" width="12" height="12" fill="#FFA500" stroke="black" stroke-width="0.5" />
<rect x="150.39999999999998" y="65.2" width="12" height="12" fill="#0000FF" stroke="black" stroke-width="0.5" />
<rect x="100" y="72.4" width="12" height="12" fill="#0000FF" stroke="black" stroke-width="0.5" />
<rect x="108.4" y="72.4" width="12" height="12" fill="#FFA500" stroke="black" stroke-width="0.5" />
<rect x="116.8" y="72.4" width="12" height="12" fill="#FFA500" stroke="black" stroke-width="0.5" />
<rect x="125.19999999999999" y="72.4" width="12" height="12" fill="#FFA500" stroke="black" stroke-width="0.5" />
<rect x="133.6" y="72.4" width="12" height="12" fill="#FFA500" stroke="black" stroke-width="0.5" />
<rect x="142" y="72.4" width="12" height="12" fill="#FFA500" stroke="black" stroke-width="0.5" />
<rect x="150.39999999999998" y="72.4" width="12" height="12" fill="#0000FF" stroke="black" stroke-width="0.5" />
<rect x="100" y="79.6" width="12" height="12" fill="#0000FF" stroke="black" stroke-width="0.5" />
<rect x="108.4" y="79.6" width="12" height="12" fill="#0000FF" stroke="black" stroke-width="0.5" />
<rect x="116.8" y="79.6" width="12" height="12" fill="#0000FF" stroke="black" stroke-width="0.5" />
<rect x="125.19999999999999" y="79.6" width="12" height="12" fill="#0000FF" stroke="black" stroke-width="0.5" />
<rect x="133.6" y="79.6" width="12" height="12" fill="#0000FF" stroke="black" stroke-width="0.5" />
<rect x="142" y="79.6" width="12" height="12" fill="#0000FF" stroke="black" stroke-width="0.5" />
<rect x="150.39999999999998" y="79.6" width="12" height="12" fill="#0000FF" stroke="black" stroke-width="0.5" />
<rect x="100" y="86.80000000000001" width="12" height="12" fill="#0000FF" stroke="black" stroke-width="0.5" />
<rect x="108.4" y="86.80000000000001" width="12" height="12" fill="#FFA500" stroke="black" stroke-width="0.5" />
<rect x="116.8" y="86.80000000000001" width="12" height="12" fill="#FFA500" stroke="black" stroke-width="0.5" />
<rect x="125.19999999999999" y="86.80000000000001" width="12" height="12" fill="#FFA500" stroke="black" stroke-width="0.5" />
<rect x="133.6" y="86.80000000000001" width="12" height="12" fill="#FFA500" stroke="black" stroke-width="0.5" />
<rect x="142" y="86.80000000000001" width="12" height="12" fill="#FFA500" stroke="black" stroke-width="0.5" />
<rect x="150.39999999999998" y="86.80000000000001" width="12" height="12" fill="#0000FF" stroke="black" stroke-width="0.5" />
<rect x="100" y="94" width="12" height="12" fill="#0000FF" stroke="black" stroke-width="0.5" />
<rect x="108.4" y="94" width="12" height="12" fill="#FFA500" stroke="black" stroke-width="0.5" />
<rect x="116.8" y="94" width="12" height="12" fill="#FFA500" stroke="black" stroke-width="0.5" />
<rect x="125.19999999999999" y="94" width="12" height="12" fill="#FFA500" stroke="black" stroke-width="0.5" />
<rect x="133.6" y="94" width="12" height="12" fill="#FFA500" stroke="black" stroke-width="0.5" />
<rect x="142" y="94" width="12" height="12" fill="#FFA500" stroke="black" stroke-width="0.5" />
<rect x="150.39999999999998" y="94" width="12" height="12" fill="#0000FF" stroke="black" stroke-width="0.5" />
<rect x="100" y="101.19999999999999" width="12" height="12" fill="#0000FF" stroke="black" stroke-width="0.5" />
<rect x="108.4" y="101.19999999999999" width="12" height="12" fill="#FFA500" stroke="black" stroke-width="0.5" />
<rect x="116.8" y="101.19999999999999" width="12" height="12" fill="#FFA500" stroke="black" stroke-width="0.5" />
<rect x="125.19999999999999" y="101.19999999999999" width="12" height="12" fill="#FFA500" stroke="black" stroke-width="0.5" />
<rect x="133.6" y="101.19999999999999" width="12" height="12" fill="#FFA500" stroke="black" stroke-width="0.5" />
<rect x="142" y="101.19999999999999" width="12" height="12" fill="#FFA500" stroke="black" stroke-width="0.5" />
<rect x="150.39999999999998" y="101.19999999999999" width="12" height="12" fill="#0000FF" stroke="black" stroke-width="0.5" />
</svg>